<svg width="35" height="34" viewBox="0 0 35 34" fill="none" xmlns="http://www.w3.org/2000/svg">
<path d="M10.25 15.375C10.734 15.375 11.14 15.211 11.468 14.883C11.796 14.555 11.9595 14.1496 11.9583 13.6667C11.9583 13.1826 11.7943 12.7766 11.4663 12.4486C11.1383 12.1206 10.7329 11.9572 10.25 11.9583C9.76597 11.9583 9.35996 12.1223 9.03196 12.4503C8.70396 12.7783 8.54053 13.1838 8.54167 13.6667C8.54167 14.1507 8.70567 14.5567 9.03367 14.8847C9.36167 15.2127 9.76711 15.3761 10.25 15.375ZM17.0833 15.375C17.5674 15.375 17.9734 15.211 18.3014 14.883C18.6294 14.555 18.7928 14.1496 18.7917 13.6667C18.7917 13.1826 18.6277 12.7766 18.2997 12.4486C17.9717 12.1206 17.5662 11.9572 17.0833 11.9583C16.5993 11.9583 16.1933 12.1223 15.8653 12.4503C15.5373 12.7783 15.3739 13.1838 15.375 13.6667C15.375 14.1507 15.539 14.5567 15.867 14.8847C16.195 15.2127 16.6004 15.3761 17.0833 15.375ZM23.9167 15.375C24.4007 15.375 24.8067 15.211 25.1347 14.883C25.4627 14.555 25.6261 14.1496 25.625 13.6667C25.625 13.1826 25.461 12.7766 25.133 12.4486C24.805 12.1206 24.3996 11.9572 23.9167 11.9583C23.4326 11.9583 23.0266 12.1223 22.6986 12.4503C22.3706 12.7783 22.2072 13.1838 22.2083 13.6667C22.2083 14.1507 22.3723 14.5567 22.7003 14.8847C23.0283 15.2127 23.4338 15.3761 23.9167 15.375ZM0 34.1667V3.41667C0 2.47709 0.334833 1.67246 1.0045 1.00279C1.67417 0.333128 2.47822 -0.00113599 3.41667 2.9004e-06H30.75C31.6896 2.9004e-06 32.4942 0.334836 33.1639 1.0045C33.8335 1.67417 34.1678 2.47823 34.1667 3.41667V23.9167C34.1667 24.8563 33.8318 25.6609 33.1622 26.3305C32.4925 27.0002 31.6884 27.3345 30.75 27.3333H6.83333L0 34.1667Z" fill="white"/>
</svg>
